<?xml version="1.0" encoding="UTF-8"?>
<svg width="335px" height="30px" viewBox="0 0 335 30" version="1.1" xmlns="http://www.w3.org/2000/svg" xmlns:xlink="http://www.w3.org/1999/xlink">
    <!-- Generator: Sketch 61.2 (89653) - https://sketch.com -->
    <title>Logo-Horizontal-Light (1)</title>
    <desc>Created with Sketch.</desc>
    <g id="Symbols" stroke="none" stroke-width="1" fill="none" fill-rule="evenodd">
        <g id="logo-/-horizontal-/-positive" transform="translate(-1.000000, 0.000000)">
            <g id="Logo-Horizontal-Light-(1)" transform="translate(1.000000, 0.000000)">
                <path d="M98.892,16.091 C102.22,16.091 103.551,15.218 103.551,12.888 C103.551,10.558 102.22,9.643 98.892,9.643 L96.396,9.643 L96.396,16.091 L98.892,16.091 Z M90.446,4.817 L98.809,4.817 C105.527,4.817 109.75,7.272 109.75,12.888 C109.75,18.442 105.527,20.917 98.809,20.917 L96.396,20.917 L96.396,28.031 L90.446,28.031 L90.446,4.817 L90.446,4.817 Z" id="Fill-1" fill="#1F6EA9"></path>
                <polyline id="Fill-2" fill="#1F6EA9" points="113.827 4.817 130.843 4.817 130.843 9.726 119.776 9.726 119.776 13.803 128.638 13.803 128.638 18.629 119.776 18.629 119.776 23.122 130.843 23.122 130.843 28.031 113.827 28.031 113.827 4.817"></polyline>
                <path d="M144.114,16.091 C147.38,16.091 148.773,15.218 148.773,12.888 C148.773,10.558 147.38,9.643 144.114,9.643 L141.618,9.643 L141.618,16.091 L144.114,16.091 Z M135.668,4.817 L144.031,4.817 C150.749,4.817 154.972,7.272 154.972,12.888 C154.972,14.698 154.535,16.133 153.641,17.215 C152.746,18.296 151.644,19.108 150.313,19.669 L155.929,28.031 L149.189,28.031 L144.696,20.917 L141.618,20.917 L141.618,28.031 L135.668,28.031 L135.668,4.817 L135.668,4.817 Z" id="Fill-3" fill="#1F6EA9"></path>
                <path d="M174.567,20.789 C174.796,22.952 176.688,23.992 179.183,23.992 C181.616,23.992 182.718,23.014 182.718,21.787 C182.718,20.685 181.99,19.916 180.056,19.417 L175.357,18.211 C171.178,17.13 169.078,14.864 169.078,11.391 C169.078,6.838 172.945,4.405 178.31,4.405 C181.054,4.405 183.279,5.028 184.984,6.255 C186.689,7.482 187.646,9.374 187.874,11.89 L181.886,11.89 C181.72,9.79 180.077,8.854 178.019,8.854 C176.022,8.854 174.983,9.665 174.983,10.934 C174.983,11.994 175.648,12.659 177.644,13.221 L182.302,14.427 C186.356,15.529 188.623,17.525 188.623,21.247 C188.623,26.008 184.568,28.441 178.85,28.441 C175.69,28.441 173.215,27.755 171.427,26.383 C169.639,25.01 168.683,23.139 168.537,20.789 L174.567,20.789" id="Fill-4" fill="#1C496C"></path>
                <path d="M213.787,19.292 C213.351,25.239 208.963,28.441 203.058,28.441 C196.114,28.441 192.038,23.95 192.038,16.423 C192.038,12.618 192.995,9.665 194.928,7.565 C196.862,5.465 199.586,4.405 203.1,4.405 C209.005,4.405 213.351,7.607 213.787,13.554 L207.757,13.554 C207.695,12.472 207.3,11.537 206.531,10.746 C205.761,9.956 204.659,9.561 203.183,9.561 C199.149,9.561 198.193,13.055 198.193,16.423 C198.193,19.791 199.149,23.285 203.183,23.285 C204.659,23.285 205.761,22.889 206.531,22.099 C207.3,21.309 207.695,20.374 207.757,19.292 L213.787,19.292" id="Fill-5" fill="#1C496C"></path>
                <polyline id="Fill-6" fill="#1C496C" points="218.449 4.821 224.395 4.821 224.395 13.637 233.087 13.637 233.087 4.821 239.034 4.821 239.034 28.025 233.087 28.025 233.087 18.752 224.395 18.752 224.395 28.025 218.449 28.025 218.449 4.821"></polyline>
                <path d="M260.188,16.424 C260.188,13.014 259.19,9.563 254.865,9.563 C250.54,9.563 249.542,13.014 249.542,16.424 C249.542,19.855 250.54,23.286 254.865,23.286 C259.19,23.286 260.188,19.855 260.188,16.424 Z M243.388,16.424 C243.388,9.251 247.172,4.406 254.865,4.406 C262.517,4.406 266.301,9.251 266.301,16.424 C266.301,23.598 262.517,28.442 254.865,28.442 C247.172,28.442 243.388,23.598 243.388,16.424 L243.388,16.424 Z" id="Fill-7" fill="#1C496C"></path>
                <polyline id="Fill-8" fill="#1C496C" points="270.713 4.821 276.659 4.821 276.659 22.91 286.681 22.91 286.681 28.025 270.713 28.025 270.713 4.821"></polyline>
                <path d="M303.648,19.791 L300.654,10.684 L297.701,19.791 L303.648,19.791 Z M297.535,4.821 L304.064,4.821 L312.547,28.025 L306.351,28.025 L305.062,24.2 L296.329,24.2 L295.081,28.025 L289.01,28.025 L297.535,4.821 L297.535,4.821 Z" id="Fill-9" fill="#1C496C"></path>
                <path d="M320.384,20.791 C320.612,22.953 322.505,23.993 325,23.993 C327.432,23.993 328.534,23.015 328.534,21.789 C328.534,20.687 327.807,19.917 325.873,19.418 L321.174,18.212 C316.994,17.131 314.894,14.865 314.894,11.392 C314.894,6.839 318.762,4.406 324.126,4.406 C326.871,4.406 329.096,5.03 330.801,6.257 C332.506,7.483 333.462,9.375 333.691,11.891 L327.703,11.891 C327.536,9.791 325.894,8.856 323.835,8.856 C321.839,8.856 320.799,9.667 320.799,10.935 C320.799,11.995 321.465,12.661 323.461,13.222 L328.119,14.428 C332.173,15.53 334.44,17.526 334.44,21.248 C334.44,26.01 330.385,28.442 324.667,28.442 C321.506,28.442 319.032,27.756 317.244,26.384 C315.456,25.012 314.499,23.14 314.354,20.791 L320.384,20.791" id="Fill-10" fill="#1C496C"></path>
                <polyline id="Fill-11" fill="#2490C3" points="-0.005 5.015 26.188 13.391 62.397 10.458 31.656 7.148 32.282 6.452 71.083 9.782 37.59 0.424 -0.005 5.015"></polyline>
                <polyline id="Fill-12" fill="#2490C3" points="11.52 11.313 26.436 16.276 26.436 29.538 11.78 21.014 11.52 11.313"></polyline>
                <polyline id="Fill-13" fill="#1F6EA9" points="26.436 16.276 54.877 12.491 54.877 20.519 26.436 29.538 26.436 16.276"></polyline>
                <polyline id="Fill-14" fill="#E2802D" points="63.576 11.681 69.85 11.003 69.85 16.45 63.576 18.152 63.576 11.681"></polyline>
            </g>
        </g>
    </g>
</svg>